<svg width="10" height="14" viewBox="0 0 10 14" fill="none" xmlns="http://www.w3.org/2000/svg">
<path fill-rule="evenodd" clip-rule="evenodd" d="M0 5C0 3.67392 0.526784 2.40215 1.46447 1.46447C2.40215 0.526784 3.67392 0 5 0C6.32608 0 7.59785 0.526784 8.53553 1.46447C9.47322 2.40215 10 3.67392 10 5C10 5.80333 9.74333 6.71733 9.37733 7.61867C9.00733 8.528 8.50933 9.46333 7.99067 10.322C7.51735 11.1046 7.004 11.8623 6.45267 12.592C5.994 13.1953 5.57533 13.68 5.312 13.89C5.2234 13.9608 5.11338 13.9993 5 13.9993C4.88662 13.9993 4.7766 13.9608 4.688 13.89C4.42467 13.68 4.006 13.1953 3.54733 12.592C2.99623 11.8623 2.4831 11.1046 2.01 10.322C1.49 9.46333 0.992667 8.528 0.623333 7.618C0.256667 6.71733 0 5.80333 0 5ZM5 7.166C5.57464 7.166 6.12574 6.93773 6.53206 6.5314C6.93839 6.12507 7.16667 5.57397 7.16667 4.99933C7.16667 4.4247 6.93839 3.8736 6.53206 3.46727C6.12574 3.06094 5.57464 2.83267 5 2.83267C4.42536 2.83267 3.87426 3.06094 3.46794 3.46727C3.06161 3.8736 2.83333 4.4247 2.83333 4.99933C2.83333 5.57397 3.06161 6.12507 3.46794 6.5314C3.87426 6.93773 4.42536 7.166 5 7.166Z" fill="white"/>
</svg>
