<svg width="14" height="2" viewBox="0 0 14 2" fill="none" xmlns="http://www.w3.org/2000/svg">
<path d="M13.146 1.55146H0.854045C0.74553 1.56087 0.636224 1.54784 0.533071 1.51321C0.429918 1.47857 0.335173 1.42309 0.254856 1.35027C0.174539 1.27746 0.110406 1.18891 0.0665311 1.09026C0.0226564 0.991605 0 0.884999 0 0.777215C0 0.669431 0.0226564 0.562826 0.0665311 0.464171C0.110406 0.365517 0.174539 0.27697 0.254856 0.204157C0.335173 0.131344 0.429918 0.075858 0.533071 0.041222C0.636224 0.0065861 0.74553 -0.00644159 0.854045 0.00296655H13.146C13.2545 -0.00644159 13.3638 0.0065861 13.4669 0.041222C13.5701 0.075858 13.6648 0.131344 13.7451 0.204157C13.8255 0.27697 13.8896 0.365517 13.9335 0.464171C13.9773 0.562826 14 0.669431 14 0.777215C14 0.884999 13.9773 0.991605 13.9335 1.09026C13.8896 1.18891 13.8255 1.27746 13.7451 1.35027C13.6648 1.42309 13.5701 1.47857 13.4669 1.51321C13.3638 1.54784 13.2545 1.56087 13.146 1.55146Z" fill="black"/>
</svg>
