<svg width="25" height="24" viewBox="0 0 25 24" fill="none" xmlns="http://www.w3.org/2000/svg">
<path d="M23.4321 0.694876C23.4142 0.504329 23.3249 0.327307 23.1817 0.19869C23.0385 0.0700737 22.8518 -0.000809877 22.6584 6.98224e-06H2.34638C2.14952 -0.000561318 1.95973 0.0725806 1.81512 0.204748C1.67051 0.336915 1.58178 0.51832 1.56675 0.712541L0.00154369 22.436C-0.00522112 22.5434 0.0102963 22.6511 0.0471414 22.7524C0.0839865 22.8536 0.14138 22.9464 0.215792 23.0249C0.291925 23.1047 0.384395 23.1675 0.487024 23.2092C0.589654 23.2508 0.70008 23.2703 0.810929 23.2663H24.2176C24.3255 23.2675 24.4324 23.2464 24.5315 23.2043C24.6306 23.1622 24.7198 23.1001 24.7932 23.0219C24.8666 22.9437 24.9227 22.8512 24.9578 22.7503C24.993 22.6494 25.0064 22.5424 24.9973 22.436L23.4321 0.694876ZM1.62627 21.7176L3.07245 1.5193H21.9264L23.3785 21.7176H1.62627Z" fill="black"/>
</svg>
