<svg version="1.1" id="Layer_1" xmlns="http://www.w3.org/2000/svg" xmlns:xlink="http://www.w3.org/1999/xlink" x="0px" y="0px"
	 width="100%" viewBox="0 0 1024 1024" enable-background="new 0 0 1024 1024" xml:space="preserve">
<path fill="#000000" opacity="1.000000" stroke="none" 
	d="
M406.000183,704.406616 
	C374.274719,705.421936 345.372040,696.706116 317.502258,683.528015 
	C310.753143,680.336731 304.256073,676.534973 296.754730,675.072632 
	C284.861694,672.754089 275.560730,677.814514 272.544769,689.357971 
	C271.147003,694.707886 267.643951,693.853271 264.104858,693.868286 
	C259.789703,693.886536 260.731689,690.574341 260.729675,688.086792 
	C260.696198,646.925476 260.687561,605.764160 260.760223,564.603027 
	C260.764069,562.411133 259.480957,559.144653 263.481049,558.785156 
	C266.969788,558.471619 270.301025,558.078125 271.814117,562.809998 
	C275.374023,573.942993 280.563934,584.397217 286.300842,594.560913 
	C287.554047,596.781067 288.741333,599.268860 292.165741,600.541199 
	C292.692902,595.619446 293.060577,591.056946 293.688934,586.530640 
	C295.603363,572.739441 299.919312,559.924683 309.867218,549.701538 
	C329.880127,529.134949 363.442780,535.690735 375.349060,562.520081 
	C380.903076,575.035278 382.553497,588.100647 379.124939,601.485657 
	C375.884155,614.137695 365.986481,622.665527 355.506622,622.308777 
	C345.394653,621.964600 335.568451,610.610718 336.748352,600.704041 
	C336.954681,598.971924 337.614319,597.891541 339.450165,597.751221 
	C352.568207,596.748840 353.783569,582.788208 350.590454,573.713501 
	C346.968719,563.420654 339.456024,558.318298 329.527679,558.379089 
	C318.085266,558.449158 308.246979,565.192017 304.044678,576.015869 
	C297.914917,591.804382 298.943909,607.491699 306.124847,622.522705 
	C319.166077,649.820557 341.771759,667.258179 368.040649,680.520203 
	C383.526093,688.338074 400.087067,693.355408 417.412018,693.378113 
	C463.848602,693.439026 495.285767,661.784607 487.939270,615.730225 
	C483.099457,585.390015 464.974976,562.714111 443.276520,542.508118 
	C427.073517,527.419556 408.279510,515.932190 389.180847,504.989105 
	C361.268280,488.995880 333.361115,473.034546 309.158722,451.496643 
	C287.272064,432.019562 269.320496,409.954926 261.503174,380.934082 
	C251.914520,345.337555 259.687500,313.403748 281.713226,284.563507 
	C299.290070,261.548553 321.944427,245.798935 350.386200,239.355087 
	C375.548645,233.654251 400.281525,236.909332 424.706604,244.265167 
	C435.893280,247.634140 446.590912,252.258469 457.523193,256.278290 
	C472.942413,261.947906 484.243011,257.900024 492.717072,243.666092 
	C493.228455,242.807129 493.827789,241.984161 494.218140,241.072495 
	C495.559479,237.939713 498.271332,238.637909 500.669464,238.829147 
	C503.580353,239.061264 503.223083,241.483612 503.221771,243.408325 
	C503.196686,280.402130 503.167725,317.396057 503.004639,354.389343 
	C502.994171,356.760895 503.795746,360.060974 499.990204,360.870819 
	C495.260986,361.877319 489.948822,359.897644 488.638306,356.402405 
	C482.886505,341.062347 475.547638,326.515259 466.944092,312.597046 
	C454.015686,291.682343 438.628967,273.027313 417.478943,259.849274 
	C401.308685,249.774002 383.684570,245.947784 364.865295,249.109573 
	C344.656830,252.504761 331.288513,264.918091 323.815125,283.344208 
	C313.182159,309.560486 319.436096,332.810089 337.894104,353.482574 
	C351.443176,368.657227 368.673218,378.906799 385.742401,389.256744 
	C411.228943,404.710510 437.657104,418.601105 462.584229,434.989624 
	C479.431885,446.066284 496.227966,457.322235 510.251099,471.998383 
	C540.198914,503.340820 555.080017,540.574219 552.053528,584.099731 
	C549.424561,621.908691 533.272949,653.181213 503.682892,677.030701 
	C487.923279,689.733032 469.247223,696.257019 449.621307,700.365051 
	C435.387390,703.344421 421.047028,704.905640 406.000183,704.406616 
z"/>
<path fill="#000000" opacity="1.000000" stroke="none" 
	d="
M534.000000,726.300049 
	C523.502075,726.295776 513.504089,726.291687 503.506165,726.286438 
	C496.987183,726.282959 496.887390,726.155029 498.151886,718.725037 
	C503.654602,718.725037 509.279358,718.778992 514.902588,718.710266 
	C520.811523,718.638123 526.441772,717.107910 531.807861,714.788147 
	C544.832764,709.157471 550.962646,698.678284 551.567139,684.941589 
	C552.042969,674.128540 551.806763,663.283813 551.865295,652.453003 
	C551.877930,650.099121 552.079468,647.869873 553.373169,645.748474 
	C561.872681,631.811035 565.533997,616.266357 567.568665,600.365479 
	C570.933899,574.065063 569.043335,547.928772 563.807739,522.000488 
	C563.296326,519.467957 563.678467,517.576904 565.992493,515.982300 
	C580.526489,505.966278 595.204712,496.146362 608.987976,485.083221 
	C609.195862,484.916351 609.614441,485.011902 609.978577,484.981323 
	C611.492676,486.053040 610.983459,487.683960 610.948669,489.090576 
	C610.239075,517.733948 611.230713,546.371948 611.197510,575.013306 
	C611.153259,613.172058 611.278809,651.330994 611.371155,689.489685 
	C611.380798,693.481445 612.172485,697.535950 611.690063,701.448975 
	C610.966248,707.319092 613.852173,707.776001 618.556335,707.717590 
	C635.550232,707.506714 652.559204,708.034058 669.542419,707.561401 
	C694.149841,706.876526 718.216492,703.510803 740.487915,691.768860 
	C763.055542,679.870728 779.180725,661.640564 792.451904,640.444885 
	C797.589111,632.240234 801.948669,623.600525 805.531311,614.626282 
	C807.017151,610.904236 808.979553,609.670837 813.117615,611.135376 
	C812.378540,617.800964 809.831787,624.108826 808.082214,630.581665 
	C800.056396,660.274536 791.795837,689.904541 783.889587,719.628845 
	C782.729797,723.989075 780.928223,725.429688 776.430725,725.412109 
	C738.105835,725.262512 699.779419,725.239380 661.454468,725.400208 
	C619.135803,725.577820 576.818115,725.989807 534.000000,726.300049 
z"/>
<path fill="#000000" opacity="1.000000" stroke="none" 
	d="
M634.779785,298.753052 
	C620.773987,305.122620 614.772705,316.778259 612.434265,330.695709 
	C611.195557,338.068359 610.831726,345.626312 611.422729,353.103851 
	C611.957520,359.869507 609.577393,365.414825 605.727356,370.673615 
	C594.826233,385.563721 580.325256,396.452087 565.503296,406.976135 
	C562.431335,409.157318 559.609863,411.789795 556.107910,413.178040 
	C554.281433,411.953033 554.949951,410.319946 554.942871,408.928436 
	C554.826416,385.949860 554.778931,362.970856 554.647827,339.992340 
	C554.608826,333.165558 554.116150,326.371124 551.969971,319.812805 
	C547.403320,305.858276 538.177856,297.228485 523.342041,295.590851 
	C519.242615,295.138367 517.206543,294.092102 517.669006,289.631470 
	C518.175110,284.750610 521.857788,286.009247 524.474487,286.122284 
	C551.106079,287.272797 577.745728,286.529205 604.379700,286.571289 
	C621.018799,286.597565 637.658569,286.123688 654.298279,285.893372 
	C662.853394,285.774963 663.036499,286.001801 661.842163,295.169128 
	C652.941467,295.574829 643.726624,295.038300 634.779785,298.753052 
z"/>
<path fill="#000000" opacity="1.000000" stroke="none" 
	d="
M600.641052,469.668396 
	C588.297180,480.167297 575.575806,489.566711 562.055176,497.828094 
	C553.289246,503.184296 553.174561,503.010010 548.898621,494.051880 
	C546.302368,488.612762 542.013794,484.237488 539.198975,478.994995 
	C534.267761,469.810852 525.089783,464.611115 518.899841,456.800568 
	C519.421509,454.346405 521.519592,454.146210 523.040588,453.331512 
	C546.999695,440.498108 570.598511,427.113373 591.624451,409.664856 
	C604.841125,398.696899 616.024231,386.084106 623.819031,370.653107 
	C624.174255,369.949921 624.768311,369.367462 625.263855,368.711945 
	C645.326294,386.754944 648.273071,416.180969 632.481201,436.832947 
	C623.214600,448.951385 612.327637,459.435394 600.641052,469.668396 
z"/>
<path fill="#000000" opacity="1.000000" stroke="none" 
	d="
M415.665588,577.284790 
	C410.902527,570.953125 407.002991,564.617554 406.372101,556.803162 
	C406.033783,552.612915 407.224335,548.908630 409.811554,545.639221 
	C410.947876,544.203308 412.299744,543.445618 414.139130,544.499573 
	C415.965515,545.546082 415.208405,546.885864 414.813843,548.382874 
	C412.160553,558.448975 415.362244,567.857300 423.110962,572.508057 
	C425.761230,570.855225 426.077911,567.513550 427.924622,565.257324 
	C429.292999,563.585449 430.467163,561.694763 432.543427,560.803711 
	C433.840668,560.246948 435.191223,560.370605 436.290192,561.351074 
	C436.960815,561.949402 437.208282,562.828369 436.717804,563.617310 
	C430.500549,573.619080 430.206146,584.239685 433.988007,595.215027 
	C430.266144,596.428711 428.384674,594.868225 426.831055,592.449524 
	C423.496796,587.258667 419.986664,582.194519 415.665588,577.284790 
z"/>
</svg>